<?xml version="1.0" encoding="UTF-8"?>
<svg id="a" data-name="Слой 1" xmlns="http://www.w3.org/2000/svg" viewBox="0 0 1024 1024">
  <defs>
    <style>
      .b {
        fill: #7e181c;
      }

      .c {
        fill: #7f1a1e;
      }

      .d {
        fill: #7f191d;
      }
    </style>
  </defs>
  <path class="c" d="M1005.848,987.063c-19.2,24.752-39.286,33.657-70.956,35.713-43.21,2.806-92.512-.105-136.481,0-228.857.542-458.625-.589-687.838,0-19.394-2.779-37.775-.049-56.744-6.857-45.099-16.187-64.939-68.938-47.609-112.233L433.311,48.364c9.607-16.94,26.023-36.003,44.673-43.006,41.558-15.604,80.242,4.311,101.208,41.13,26.457,46.461,51.571,100.485,76.356,148.714,71.561,139.247,141.41,279.393,212.552,418.846,52.277,102.473,108.454,203.591,155.23,308.496,2.513,26.009-1.781,44.277-17.483,64.519ZM35,973.572c9.372,12.218,20.706,20.919,36.169,23.576h880.402c53.98-13.916,57.848-59.245,35.803-103.663-97.273-195.994-200.801-389.849-300.53-584.648-41.188-80.453-79.837-163.26-122.722-242.823-5.854-10.861-12.514-24.562-22.835-31.564-18.653-12.655-45.062-15.22-64.597-3.234-18.568,11.393-22.416,29.1-31.668,46.902C301.876,353.551,169.206,635.028,27.758,911.553c-9.17,22.269-7.416,42.911,7.242,62.019Z"/>
  <path class="b" d="M741.658,712.018l-60.632-125.634-3.76-1.086c-16.558,31.156-30.657,63.639-47.146,94.867-15.875,30.066-39.043,77.127-64.186,98.992-31.054,27.006-83.045,24.368-112.21-4.521-64.759-64.146-71.611-228.64-71.197-315.309.406-85.151,11.856-177.393,50.978-253.914,10.449-20.437,38.733-68.809,63.374-71.144,38.588-3.656,55.905,11.438,73.366,43.293,10.771,19.651,23.589,46.697,32.3,67.39,1.633,3.879,3.1,8.027,3.995,12.143-.338,1.744-2.388,2.765-3.76,3.721-5.641,3.931-16.715,9.282-23.383,12.91-6.531,3.554-27.73,15.479-33.147,16.831-1.617.404-3.068,1.337-4.664.018-.316-6.593-5.046-14.358-5.881-19.808-3.045-19.874-5.345-48-11.717-66.764-2.163-6.368-8.108-20.763-16.349-19.91-23.191,15.326-28.57,48.823-34.628,74.219-27.852,116.766-19.219,240.005-17.345,360.598,7.163,37.544,6.914,81.482,26.142,115.746,9.682,17.253,24.597,26.866,45.098,22.21,1.588-.361,14.739-11.205,16.285-12.852,9.308-9.912,16.513-23.598,22.968-35.523,39.636-73.224,69.994-152.303,110.302-225.022,21.809-19.671,34.482.874,44.262,19.385,9.295,17.591,16.747,36.583,25.663,54.389,57.178,114.178,114.746,228.115,170.677,342.888,2.191,10.529-1.278,23.49-10.395,29.693-14.364,9.773-24.005,6.754-40.02,5.718-3.588-.232-5.602,2.679-10.445-.463l-89.476-171.839-7.875-2.42-118.708.968,1.169-8.648,22.32-41.123h78.026Z"/>
  <path class="d" d="M228.053,841.725c-1.293-1.213,3.969-13.052,4.98-15.404,3.271-7.604,11.354-24.741,15.608-31.217,1.75-2.664,4.414-4.816,7.075-6.538l70.782,1.143-61.304-124.433-126.777,258.401c-8.807,10.455-14.607,16.64-28.084,8.844-9.391-5.433-16.697-15.323-14.016-26.635l157.186-321.62c11.682-20.616,31.247-20.77,44.024-.985l144.907,284.083h353.009c.923,0,3.209,3.105,1.647,4.625l-31.423,60.751-5.101,3.971-353.054.108c-6.327-.377-9.616-8.183-12.531-13.165-14.25-24.355-23.284-52.812-37.84-76.956-1.146-1.902-2.313-3.602-4.094-4.974h-124.993Z"/>
</svg>